<?xml version="1.0" encoding="UTF-8" ?>
<!DOCTYPE svg PUBLIC "-//W3C//DTD SVG 1.1//EN" "http://www.w3.org/Graphics/SVG/1.1/DTD/svg11.dtd">
<svg width="290pt" height="290pt" viewBox="0 0 290 290" version="1.1" xmlns="http://www.w3.org/2000/svg">
<g id="#ffffffff">
<path fill="#ffffff" opacity="1.00" d=" M 145.52 45.53 C 149.90 42.28 156.03 43.61 159.89 47.06 C 199.63 76.93 239.32 106.89 279.00 136.85 C 284.86 140.69 284.92 150.14 279.12 154.06 C 239.61 183.90 200.07 213.72 160.51 243.49 C 157.14 246.34 152.40 248.54 148.02 246.72 C 143.00 245.34 141.31 239.71 141.28 235.07 C 141.32 223.42 141.24 211.78 141.32 200.13 C 100.20 200.15 59.08 200.12 17.96 200.15 C 14.08 200.11 9.86 198.67 7.78 195.19 C 6.02 192.13 5.89 188.46 5.99 185.02 C 6.01 157.64 5.99 130.26 5.99 102.88 C 6.15 99.33 7.08 95.33 10.20 93.20 C 13.24 90.86 17.28 90.74 20.95 90.85 C 61.07 90.88 101.20 90.85 141.32 90.87 C 141.26 78.93 141.29 66.98 141.31 55.04 C 141.66 51.56 142.40 47.63 145.52 45.53 M 151.30 53.02 C 151.28 68.97 151.31 84.92 151.28 100.86 C 134.69 100.89 118.11 100.83 101.52 100.89 C 73.02 100.83 44.51 100.87 16.01 100.87 C 15.99 130.62 16.00 160.38 16.01 190.13 C 61.10 190.15 106.19 190.12 151.29 190.14 C 151.30 206.09 151.29 222.03 151.29 237.98 C 167.77 225.62 184.19 213.19 200.64 200.80 C 225.08 182.37 249.53 163.96 273.96 145.51 C 233.10 114.64 192.21 83.82 151.30 53.02 Z" />
</g>
<g id="#4f8ee5ff">
<path fill="#4f8ee5" opacity="1.00" d=" M 151.30 53.02 C 192.21 83.82 233.10 114.64 273.96 145.51 C 249.53 163.96 225.08 182.37 200.64 200.80 C 196.87 196.43 192.64 192.50 188.58 188.41 C 161.92 161.75 135.25 135.09 108.59 108.43 C 106.12 106.02 103.74 103.53 101.52 100.89 C 118.11 100.83 134.69 100.89 151.28 100.86 C 151.31 84.92 151.28 68.97 151.30 53.02 Z" />
</g>
<g id="#307ae1ff">
<path fill="#307ae1" opacity="1.00" d=" M 16.01 100.87 C 44.51 100.87 73.02 100.83 101.52 100.89 C 103.74 103.53 106.12 106.02 108.59 108.43 C 135.25 135.09 161.92 161.75 188.58 188.41 C 192.64 192.50 196.87 196.43 200.64 200.80 C 184.19 213.19 167.77 225.62 151.29 237.98 C 151.29 222.03 151.30 206.09 151.29 190.14 C 106.19 190.12 61.10 190.15 16.01 190.13 C 16.00 160.38 15.99 130.62 16.01 100.87 Z" />
</g>
</svg>
