<?xml version="1.0" encoding="UTF-8" ?>
<!DOCTYPE svg PUBLIC "-//W3C//DTD SVG 1.1//EN" "http://www.w3.org/Graphics/SVG/1.1/DTD/svg11.dtd">
<svg width="290pt" height="290pt" viewBox="0 0 290 290" version="1.1" xmlns="http://www.w3.org/2000/svg">
<g id="#ffffffff">
<path fill="#ffffff" opacity="1.00" d=" M 136.93 57.94 C 141.63 55.62 146.95 56.43 152.00 56.31 C 157.06 56.45 162.36 55.66 167.18 57.65 C 171.69 60.18 175.31 64.67 175.17 70.08 C 175.20 119.71 175.21 169.35 175.17 218.98 C 175.29 224.38 171.65 228.84 167.15 231.37 C 162.00 233.44 156.37 232.49 150.98 232.69 C 145.81 232.47 140.37 233.50 135.49 231.31 C 130.79 229.00 127.48 224.15 127.33 218.87 C 127.27 185.25 127.33 151.62 127.30 118.00 C 127.32 115.74 127.11 113.44 127.69 111.24 C 123.85 113.44 120.00 116.06 115.47 116.51 C 110.38 115.66 104.31 113.89 102.39 108.50 C 100.39 102.09 98.38 95.68 96.55 89.23 C 95.00 84.76 96.87 79.17 101.24 77.03 C 113.11 70.62 124.99 64.22 136.93 57.94 M 140.39 67.34 C 128.88 73.56 117.31 79.69 105.79 85.91 C 107.76 92.30 109.68 98.71 111.67 105.09 C 113.01 105.60 114.35 106.10 115.69 106.60 C 122.86 102.50 130.12 98.56 137.35 94.59 C 137.37 135.72 137.39 176.85 137.35 217.98 C 136.93 220.51 139.42 223.05 141.96 222.65 C 148.82 222.62 155.68 222.64 162.54 222.63 C 163.41 221.74 164.29 220.85 165.16 219.97 C 165.16 169.66 165.16 119.34 165.16 69.03 C 164.28 68.14 163.41 67.26 162.54 66.37 C 156.38 66.37 150.21 66.37 144.04 66.35 C 142.73 66.24 141.50 66.69 140.39 67.34 Z" />
</g>
<g id="#646c77ff">
<path fill="#646c77" opacity="1.00" d=" M 140.39 67.34 C 141.50 66.69 142.73 66.24 144.04 66.35 C 150.21 66.37 156.38 66.37 162.54 66.37 C 163.41 67.26 164.28 68.14 165.16 69.03 C 165.16 119.34 165.16 169.66 165.16 219.97 C 164.29 220.85 163.41 221.74 162.54 222.63 C 155.68 222.64 148.82 222.62 141.96 222.65 C 139.42 223.05 136.93 220.51 137.35 217.98 C 137.39 176.85 137.37 135.72 137.35 94.59 C 130.12 98.56 122.86 102.50 115.69 106.60 C 114.35 106.10 113.01 105.60 111.67 105.09 C 109.68 98.71 107.76 92.30 105.79 85.91 C 117.31 79.69 128.88 73.56 140.39 67.34 Z" />
</g>
</svg>
