<?xml version="1.0" encoding="UTF-8" ?>
<!DOCTYPE svg PUBLIC "-//W3C//DTD SVG 1.1//EN" "http://www.w3.org/Graphics/SVG/1.1/DTD/svg11.dtd">
<svg width="290pt" height="290pt" viewBox="0 0 290 290" version="1.1" xmlns="http://www.w3.org/2000/svg">
<g id="#ffffffff">
<path fill="#ffffff" opacity="1.00" d=" M 60.20 58.13 C 82.67 36.36 113.66 23.71 144.94 23.54 C 172.25 23.83 199.47 33.34 220.74 50.53 C 225.31 46.13 229.64 41.49 234.32 37.21 C 241.96 30.35 254.90 31.91 261.33 39.67 C 264.92 43.85 265.92 49.61 265.78 54.96 C 265.75 75.33 265.77 95.70 265.77 116.06 C 265.50 121.16 264.04 126.56 260.22 130.18 C 256.58 134.01 251.23 135.67 246.07 135.93 C 226.03 135.95 205.99 135.92 185.95 135.94 C 181.60 136.17 177.16 135.64 173.13 133.91 C 163.30 129.00 159.30 114.98 165.91 105.97 C 170.20 100.55 175.60 96.14 180.24 91.03 C 165.82 80.74 147.00 78.46 129.95 82.08 C 116.22 85.69 103.48 93.52 94.75 104.80 C 86.40 115.70 80.83 129.11 80.98 143.00 C 80.19 159.77 87.16 176.36 98.55 188.50 C 110.52 200.93 127.57 208.81 144.97 208.34 C 164.28 208.84 183.20 199.18 194.93 183.98 C 199.86 176.98 210.89 176.23 217.01 182.05 C 223.59 188.46 229.98 195.07 236.49 201.55 C 240.27 205.18 242.26 210.91 240.59 215.99 C 239.73 220.57 235.99 223.67 233.19 227.11 C 210.85 251.45 177.92 265.08 145.03 265.33 C 119.73 265.13 94.45 257.01 73.95 242.12 C 49.47 224.92 32.60 197.71 26.65 168.51 C 17.81 129.18 31.80 86.33 60.20 58.13 M 66.13 66.37 C 56.31 76.33 48.50 88.18 42.97 101.01 C 33.21 123.33 31.37 148.96 37.62 172.49 C 43.96 195.84 57.68 217.36 77.01 232.06 C 97.95 248.10 124.56 256.80 150.97 255.16 C 177.92 253.84 204.22 242.18 223.24 223.04 C 225.66 220.52 228.09 217.99 230.25 215.24 C 231.77 213.52 231.66 210.61 229.90 209.11 C 223.44 202.57 216.97 196.05 210.48 189.55 C 208.73 187.53 205.17 187.28 203.44 189.44 C 201.32 191.90 199.29 194.44 197.02 196.78 C 187.94 205.89 176.43 212.54 164.01 215.87 C 146.19 220.66 126.59 218.50 110.35 209.71 C 86.94 197.74 71.36 172.27 70.98 146.04 C 70.38 126.12 78.64 106.35 92.54 92.18 C 100.88 83.99 111.11 77.75 122.22 74.11 C 147.02 65.94 176.65 71.72 195.14 90.53 C 188.92 96.50 182.94 102.72 176.79 108.76 C 174.78 110.77 172.48 113.02 172.46 116.08 C 172.43 120.75 175.92 125.81 180.92 125.88 C 202.63 126.00 224.34 125.90 246.05 125.93 C 250.99 126.31 255.73 121.99 255.74 117.03 C 255.81 96.00 255.73 74.98 255.78 53.95 C 255.77 51.69 255.84 49.28 254.62 47.28 C 252.52 43.79 247.97 41.97 244.04 42.94 C 240.98 43.92 239.04 46.68 236.76 48.77 C 231.53 53.84 226.54 59.18 221.15 64.08 C 199.64 43.66 169.74 32.23 140.06 33.65 C 112.48 34.78 85.62 46.89 66.13 66.37 Z" />
</g>
<g id="#f18b42ff">
<path fill="#f18b42" opacity="1.00" d=" M 66.13 66.37 C 85.62 46.89 112.48 34.78 140.06 33.65 C 169.74 32.23 199.64 43.66 221.15 64.08 C 226.54 59.18 231.53 53.84 236.76 48.77 C 239.04 46.68 240.98 43.92 244.04 42.94 C 247.97 41.97 252.52 43.79 254.62 47.28 C 255.84 49.28 255.77 51.69 255.78 53.95 C 255.73 74.98 255.81 96.00 255.74 117.03 C 255.73 121.99 250.99 126.31 246.05 125.93 C 224.34 125.90 202.63 126.00 180.92 125.88 C 175.92 125.81 172.43 120.75 172.46 116.08 C 172.48 113.02 174.78 110.77 176.79 108.76 C 182.94 102.72 188.92 96.50 195.14 90.53 C 176.65 71.72 147.02 65.94 122.22 74.11 C 111.11 77.75 100.88 83.99 92.54 92.18 C 83.58 83.73 75.39 74.49 66.13 66.37 Z" />
<path fill="#f18b42" opacity="1.00" d=" M 203.44 189.44 C 205.17 187.28 208.73 187.53 210.48 189.55 C 216.97 196.05 223.44 202.57 229.90 209.11 C 231.66 210.61 231.77 213.52 230.25 215.24 C 228.09 217.99 225.66 220.52 223.24 223.04 C 214.54 214.25 205.76 205.53 197.02 196.78 C 199.29 194.44 201.32 191.90 203.44 189.44 Z" />
</g>
<g id="#ee7721ff">
<path fill="#ee7721" opacity="1.00" d=" M 42.97 101.01 C 48.50 88.18 56.31 76.33 66.13 66.37 C 75.39 74.49 83.58 83.73 92.54 92.18 C 78.64 106.35 70.38 126.12 70.98 146.04 C 71.36 172.27 86.94 197.74 110.35 209.71 C 126.59 218.50 146.19 220.66 164.01 215.87 C 176.43 212.54 187.94 205.89 197.02 196.78 C 205.76 205.53 214.54 214.25 223.24 223.04 C 204.22 242.18 177.92 253.84 150.97 255.16 C 124.56 256.80 97.95 248.10 77.01 232.06 C 57.68 217.36 43.96 195.84 37.62 172.49 C 31.37 148.96 33.21 123.33 42.97 101.01 Z" />
</g>
</svg>
