<?xml version="1.0" encoding="UTF-8" ?>
<!DOCTYPE svg PUBLIC "-//W3C//DTD SVG 1.1//EN" "http://www.w3.org/Graphics/SVG/1.1/DTD/svg11.dtd">
<svg width="290pt" height="290pt" viewBox="0 0 290 290" version="1.1" xmlns="http://www.w3.org/2000/svg">
<g id="#ffffffff">
<path fill="#ffffff" opacity="1.00" d=" M 62.74 55.73 C 85.02 35.42 114.90 23.67 145.06 23.54 C 172.32 23.86 199.50 33.36 220.74 50.53 C 225.29 46.14 229.61 41.52 234.27 37.25 C 242.27 30.01 256.21 32.06 262.22 40.86 C 264.62 44.03 265.39 48.11 265.75 51.98 C 265.79 73.34 265.75 94.70 265.77 116.06 C 265.50 121.15 264.05 126.55 260.23 130.17 C 256.57 134.01 251.20 135.68 246.03 135.93 C 224.99 135.95 203.95 135.92 182.92 135.95 C 176.94 135.94 170.75 133.78 167.00 128.93 C 167.16 151.95 167.00 174.97 167.08 197.98 C 167.21 200.37 166.57 202.68 166.03 204.99 C 177.40 200.77 187.59 193.54 194.99 183.90 C 199.95 176.96 210.96 176.25 217.05 182.08 C 223.76 188.66 230.34 195.39 236.96 202.07 C 242.24 207.19 242.47 216.21 237.74 221.76 C 215.58 249.44 180.17 265.10 144.96 265.33 C 120.15 265.11 95.35 257.31 75.09 242.92 C 50.68 226.20 33.52 199.59 27.18 170.79 C 17.03 129.75 32.02 84.34 62.74 55.73 M 56.17 78.02 C 42.17 96.98 33.91 120.34 34.01 143.99 C 33.70 170.57 43.89 196.84 61.05 217.00 C 84.24 243.87 120.83 258.67 156.20 254.76 C 184.77 251.99 212.14 237.59 230.24 215.25 C 231.78 213.53 231.67 210.61 229.89 209.09 C 223.42 202.55 216.93 196.01 210.43 189.51 C 208.28 187.02 204.12 187.64 202.55 190.45 C 189.22 207.67 167.79 218.19 146.03 218.34 C 128.05 218.76 110.17 212.00 96.55 200.35 C 85.80 191.15 78.03 178.68 73.93 165.17 C 68.94 148.32 70.23 129.64 77.73 113.72 C 84.26 99.29 95.55 87.05 109.54 79.60 C 124.32 71.38 141.92 68.70 158.52 71.68 C 172.30 74.00 185.08 80.81 195.28 90.27 C 188.50 97.15 181.55 103.88 174.82 110.83 C 169.60 115.75 173.92 125.79 180.93 125.89 C 202.62 126.00 224.31 125.90 246.00 125.93 C 251.32 126.37 256.22 121.41 255.77 116.11 C 255.71 94.41 255.85 72.72 255.71 51.02 C 255.60 44.10 245.82 39.90 240.84 44.80 C 234.23 51.16 227.82 57.73 221.26 64.14 C 197.25 41.33 162.78 29.80 129.90 34.57 C 100.92 38.61 73.57 54.41 56.17 78.02 M 165.78 83.67 C 168.18 90.36 166.65 97.60 167.04 104.54 C 171.26 99.87 175.88 95.59 180.28 91.10 C 175.88 87.87 170.85 85.62 165.78 83.67 M 137.51 87.28 C 129.17 91.80 120.80 96.25 112.44 100.73 C 113.88 105.49 115.31 110.25 116.82 114.98 C 117.51 115.28 118.88 115.88 119.57 116.18 C 125.05 113.20 130.50 110.16 135.98 107.17 C 135.93 138.39 135.98 169.61 135.95 200.83 C 136.69 201.56 137.43 202.30 138.17 203.05 C 143.72 203.03 149.28 203.03 154.83 203.05 C 155.57 202.30 156.31 201.57 157.05 200.83 C 157.03 163.28 157.03 125.72 157.05 88.17 C 156.32 87.44 155.59 86.72 154.87 85.99 C 150.21 86.04 145.54 85.94 140.89 86.01 C 139.63 85.96 138.59 86.77 137.51 87.28 M 82.29 130.54 C 79.64 144.60 80.64 159.77 87.53 172.53 C 95.20 188.99 110.55 200.94 127.69 206.31 C 126.53 203.70 125.78 200.89 125.92 198.02 C 126.00 173.43 125.83 148.84 126.00 124.25 C 119.40 128.17 108.82 124.95 107.01 117.05 C 105.53 111.78 103.50 106.64 102.57 101.23 C 102.93 98.70 103.45 96.08 105.14 94.07 C 93.98 103.47 85.69 116.31 82.29 130.54 Z" />
</g>
<g id="#000000ff">
<path fill="#000000" opacity="1.00" d=" M 56.17 78.02 C 73.57 54.41 100.92 38.61 129.90 34.57 C 162.78 29.80 197.25 41.33 221.26 64.14 C 227.82 57.73 234.23 51.16 240.84 44.80 C 245.82 39.90 255.60 44.10 255.71 51.02 C 255.85 72.72 255.71 94.41 255.77 116.11 C 256.22 121.41 251.32 126.37 246.00 125.93 C 224.31 125.90 202.62 126.00 180.93 125.89 C 173.92 125.79 169.60 115.75 174.82 110.83 C 181.55 103.88 188.50 97.15 195.28 90.27 C 185.08 80.81 172.30 74.00 158.52 71.68 C 141.92 68.70 124.32 71.38 109.54 79.60 C 95.55 87.05 84.26 99.29 77.73 113.72 C 70.23 129.64 68.94 148.32 73.93 165.17 C 78.03 178.68 85.80 191.15 96.55 200.35 C 110.17 212.00 128.05 218.76 146.03 218.34 C 167.79 218.19 189.22 207.67 202.55 190.45 C 204.12 187.64 208.28 187.02 210.43 189.51 C 216.93 196.01 223.42 202.55 229.89 209.09 C 231.67 210.61 231.78 213.53 230.24 215.25 C 212.14 237.59 184.77 251.99 156.20 254.76 C 120.83 258.67 84.24 243.87 61.05 217.00 C 43.89 196.84 33.70 170.57 34.01 143.99 C 33.91 120.34 42.17 96.98 56.17 78.02 Z" />
<path fill="#000000" opacity="1.00" d=" M 137.51 87.28 C 138.59 86.77 139.63 85.96 140.89 86.01 C 145.54 85.94 150.21 86.04 154.87 85.99 C 155.59 86.72 156.32 87.44 157.05 88.17 C 157.03 125.72 157.03 163.28 157.05 200.83 C 156.31 201.57 155.57 202.30 154.83 203.05 C 149.28 203.03 143.72 203.03 138.17 203.05 C 137.43 202.30 136.69 201.56 135.95 200.83 C 135.98 169.61 135.93 138.39 135.98 107.17 C 130.50 110.16 125.05 113.20 119.57 116.18 C 118.88 115.88 117.51 115.28 116.82 114.98 C 115.31 110.25 113.88 105.49 112.44 100.73 C 120.80 96.25 129.17 91.80 137.51 87.28 Z" />
</g>
</svg>
