<?xml version="1.0" encoding="UTF-8" ?>
<!DOCTYPE svg PUBLIC "-//W3C//DTD SVG 1.1//EN" "http://www.w3.org/Graphics/SVG/1.1/DTD/svg11.dtd">
<svg width="200pt" height="200pt" viewBox="0 0 200 200" version="1.1" xmlns="http://www.w3.org/2000/svg">
<g id="#d1525cff">
<path fill="#d1525c" opacity="1.00" d=" M 17.08 45.96 C 24.88 34.39 37.23 25.77 51.08 23.41 C 64.56 20.64 79.01 24.02 90.26 31.82 C 93.98 34.31 96.86 37.80 100.13 40.82 C 104.61 36.35 109.36 32.08 114.94 29.01 C 127.99 21.72 144.25 20.62 158.21 25.96 C 174.92 32.07 187.78 47.42 190.90 64.94 C 193.51 77.56 190.38 90.84 183.48 101.59 C 177.73 111.20 168.85 118.22 161.09 126.10 C 148.45 138.80 135.16 150.83 122.52 163.53 C 115.22 170.74 107.72 177.74 100.26 184.79 C 91.52 176.84 83.37 168.30 74.81 160.16 C 65.95 152.38 57.87 143.77 49.33 135.66 C 41.55 128.79 34.29 121.37 26.90 114.09 C 16.40 104.23 9.10 90.52 8.47 75.98 C 8.32 65.42 11.26 54.80 17.08 45.96 M 29.49 43.50 C 21.43 52.26 16.21 63.97 16.50 76.00 C 17.33 88.97 24.86 100.26 33.48 109.49 C 44.65 118.25 53.29 129.79 64.43 138.58 C 71.62 145.37 78.26 152.72 85.55 159.40 C 91.16 163.48 95.47 169.00 100.64 173.58 C 108.89 165.52 116.55 156.80 125.51 149.51 C 134.01 141.35 142.13 132.79 150.62 124.63 C 156.41 120.13 161.33 114.68 166.58 109.59 C 170.73 105.63 174.27 101.04 177.10 96.06 C 180.04 90.38 183.43 84.59 183.66 78.02 C 184.89 63.84 178.37 49.53 167.42 40.59 C 158.37 33.40 146.56 29.40 134.97 30.89 C 127.63 31.51 120.96 35.01 114.78 38.78 C 109.85 41.64 107.14 48.23 100.83 48.43 C 94.98 48.89 92.00 43.12 87.65 40.35 C 79.87 34.09 70.02 30.53 60.02 30.46 C 48.67 30.85 37.79 35.85 29.49 43.50 Z" />
</g>
<g id="#000000ff">
</g>
</svg>
