<?xml version="1.0" standalone="no"?><!DOCTYPE svg PUBLIC "-//W3C//DTD SVG 1.1//EN" "http://www.w3.org/Graphics/SVG/1.1/DTD/svg11.dtd"><svg t="1564903673552" class="icon" viewBox="0 0 1024 1024" version="1.1" xmlns="http://www.w3.org/2000/svg" p-id="4788" xmlns:xlink="http://www.w3.org/1999/xlink" width="200" height="200"><defs><style type="text/css"></style></defs><path d="M 983.384 381.465 c 0 -147.456 -119.467 -266.923 -266.923 -266.923 c -81.4649 0 -154.283 36.4089 -203.207 93.8662 c -48.9245 -57.4578 -121.856 -93.8662 -203.207 -93.8662 c -147.456 0 -266.923 119.467 -266.923 266.923 c 0 77.3689 35.6125 142.109 85.5609 195.811 L 514.275 947.964 l 378.994 -366.592 c 48.0142 -50.0622 90.112 -120.377 90.112 -199.907 Z" fill="#d1525c" p-id="4789"></path><path d="M 514.275 947.964 L 128.569 577.276 C 78.507 523.574 43.008 458.835 43.008 381.465 c 0 -147.456 119.467 -266.923 266.923 -266.923 c 81.4649 0 154.283 36.4089 203.207 93.8662 l 1.13778 739.555 Z" fill="#db6574" p-id="4790"></path></svg>