<?xml version="1.0" standalone="no"?><!DOCTYPE svg PUBLIC "-//W3C//DTD SVG 1.1//EN" "http://www.w3.org/Graphics/SVG/1.1/DTD/svg11.dtd"><svg t="1564900487267" class="icon" viewBox="0 0 1024 1024" version="1.1" xmlns="http://www.w3.org/2000/svg" p-id="1626" xmlns:xlink="http://www.w3.org/1999/xlink" width="200" height="200"><defs><style type="text/css"></style></defs><path d="M0.739556 233.130667a232.391111 232.391111 0 0 1 232.391111-232.391111h557.738666a232.391111 232.391111 0 0 1 232.391111 232.391111v557.738666a232.391111 232.391111 0 0 1-232.391111 232.391111H233.130667a232.391111 232.391111 0 0 1-232.391111-232.391111V233.130667z m232.391111-139.434667a139.434667 139.434667 0 0 0-139.434667 139.434667v557.738666a139.434667 139.434667 0 0 0 139.434667 139.434667h557.738666a139.434667 139.434667 0 0 0 139.434667-139.434667V233.130667a139.434667 139.434667 0 0 0-139.434667-139.434667H233.130667z" fill="#ffffff" p-id="1627"></path><path d="M601.088 186.652444c25.685333 0 46.506667 20.792889 46.506667 46.478223v96.796444c0 25.685333 20.792889 46.478222 46.478222 46.478222h96.796444a46.478222 46.478222 0 1 1 0 92.984889h-96.796444a139.434667 139.434667 0 0 1-139.463111-139.463111V233.130667c0-25.685333 20.821333-46.478222 46.478222-46.478223z m-414.435556 414.435556c0-25.656889 20.792889-46.478222 46.478223-46.478222h96.796444a139.434667 139.434667 0 0 1 139.463111 139.463111v96.796444a46.478222 46.478222 0 0 1-92.984889 0v-96.796444c0-25.685333-20.792889-46.478222-46.478222-46.478222H233.130667a46.478222 46.478222 0 0 1-46.478223-46.506667z" fill="#ffffff" p-id="1628"></path></svg>