<?xml version="1.0" encoding="UTF-8" ?>
<!DOCTYPE svg PUBLIC "-//W3C//DTD SVG 1.1//EN" "http://www.w3.org/Graphics/SVG/1.1/DTD/svg11.dtd">
<svg width="290pt" height="290pt" viewBox="0 0 290 290" version="1.1" xmlns="http://www.w3.org/2000/svg">
<g id="#ffffffff">
<path fill="#ffffff" opacity="1.00" d=" M 208.94 33.02 C 209.36 27.05 213.84 21.43 219.82 20.33 C 225.22 18.71 231.12 21.14 234.94 25.06 C 248.43 38.56 261.93 52.05 275.43 65.56 C 277.78 67.93 280.33 70.16 282.12 73.02 C 285.46 78.89 284.35 86.76 279.43 91.43 C 264.27 106.60 249.13 121.80 233.91 136.92 C 227.41 143.80 214.66 142.03 210.53 133.41 C 207.39 125.67 209.28 117.12 208.76 109.00 C 199.85 109.01 190.93 108.99 182.02 109.01 C 178.60 109.07 175.01 109.14 171.93 110.81 C 167.24 112.90 164.08 117.12 160.92 120.99 C 155.19 129.36 151.06 138.67 146.91 147.89 C 152.02 150.86 153.36 157.00 156.24 161.74 C 160.90 170.03 166.84 179.24 176.95 181.04 C 187.53 181.88 198.17 181.08 208.77 181.49 C 208.93 175.01 208.42 168.49 209.03 162.04 C 209.60 156.52 213.43 151.20 219.02 149.96 C 224.49 148.05 230.86 150.09 234.79 154.23 C 249.79 169.25 264.86 184.21 279.80 199.29 C 285.28 204.79 285.51 214.46 280.16 220.12 C 265.02 235.33 249.81 250.47 234.66 265.65 C 230.78 269.63 224.63 271.76 219.26 269.87 C 213.36 268.47 209.32 262.90 208.91 256.98 C 208.60 250.78 208.78 244.55 208.84 238.34 C 192.68 238.76 176.28 239.19 160.47 235.30 C 152.90 233.88 146.13 230.04 139.45 226.40 C 130.73 220.81 123.37 213.23 117.14 205.00 C 111.02 212.76 104.23 220.16 95.92 225.61 C 88.07 231.14 78.83 234.29 69.53 236.34 C 57.60 239.37 45.19 238.14 33.02 238.40 C 26.10 238.10 18.62 239.55 12.26 236.08 C 7.36 233.26 5.45 227.37 5.45 222.00 C 5.49 213.64 5.45 205.27 5.47 196.91 C 5.72 192.64 6.81 188.07 10.22 185.20 C 12.85 182.62 16.59 181.90 20.10 181.44 C 31.37 181.30 42.64 181.49 53.91 181.35 C 58.77 181.43 63.70 179.72 67.18 176.27 C 76.98 167.07 81.80 154.14 87.49 142.27 C 82.53 140.27 81.36 134.47 78.85 130.28 C 74.07 121.38 67.97 111.17 57.12 109.32 C 47.78 108.63 38.40 109.18 29.04 109.00 C 23.25 108.91 16.80 109.76 11.75 106.28 C 7.33 103.51 5.51 98.08 5.46 93.09 C 5.47 84.70 5.47 76.32 5.46 67.93 C 5.54 63.19 7.10 58.07 11.11 55.19 C 13.87 52.93 17.54 52.28 21.00 52.01 C 31.01 51.98 41.02 52.00 51.03 52.00 C 68.48 51.94 86.15 57.16 100.02 67.94 C 106.49 72.86 112.24 78.73 117.08 85.26 C 125.33 75.08 134.82 65.41 146.88 59.85 C 158.22 54.86 170.57 51.92 182.99 52.00 C 191.58 51.98 200.17 52.00 208.76 52.00 C 208.88 45.68 208.53 39.33 208.94 33.02 M 218.83 33.98 C 218.67 43.31 218.82 52.66 218.76 62.00 C 206.17 62.03 193.58 61.95 180.99 62.04 C 169.58 62.10 158.22 65.02 148.16 70.37 C 138.56 75.65 131.01 83.89 124.27 92.38 C 108.50 113.68 100.67 139.34 88.76 162.74 C 84.69 170.59 80.05 178.37 73.31 184.24 C 68.04 188.91 60.99 191.19 54.01 191.35 C 42.70 191.49 31.38 191.32 20.07 191.43 C 17.53 191.26 15.30 193.55 15.49 196.08 C 15.46 205.35 15.44 214.62 15.50 223.88 C 15.39 226.31 17.56 228.47 20.00 228.35 C 26.67 228.48 33.36 228.35 40.04 228.40 C 49.05 228.33 58.18 228.83 67.06 226.89 C 77.38 224.64 87.51 220.49 95.53 213.47 C 104.64 205.50 112.36 195.94 118.23 185.33 C 129.66 165.85 136.56 144.16 147.26 124.32 C 151.05 117.42 155.50 110.72 161.57 105.61 C 166.97 101.15 174.00 99.10 180.93 99.02 C 193.54 98.97 206.15 99.02 218.76 99.00 C 218.82 108.34 218.66 117.69 218.83 127.03 C 218.85 130.93 224.37 132.86 226.86 129.87 C 242.11 114.69 257.30 99.44 272.52 84.23 C 274.81 82.37 274.78 78.60 272.50 76.75 C 257.26 61.55 242.10 46.27 226.81 31.13 C 224.27 28.25 218.71 29.95 218.83 33.98 M 15.48 67.04 C 15.46 76.04 15.46 85.03 15.48 94.03 C 15.20 96.58 17.32 99.09 19.94 98.96 C 30.95 99.08 41.98 98.94 53.00 99.02 C 62.05 99.12 71.16 103.00 77.15 109.86 C 83.36 116.96 87.62 125.43 91.87 133.77 C 97.80 120.39 103.69 106.89 111.63 94.55 C 106.41 87.19 100.24 80.42 92.94 75.07 C 81.80 66.71 67.96 62.25 54.08 62.05 C 42.69 61.98 31.29 61.96 19.90 62.05 C 17.27 61.95 15.18 64.49 15.48 67.04 M 142.37 156.51 C 136.53 169.95 130.54 183.40 122.75 195.85 C 128.22 203.70 134.91 210.78 142.54 216.56 C 149.64 220.88 157.16 225.04 165.48 226.33 C 183.03 229.91 201.01 228.09 218.78 228.41 C 218.78 237.61 218.71 246.80 218.80 256.00 C 218.50 259.83 223.74 262.30 226.49 259.58 C 241.92 244.30 257.22 228.88 272.59 213.54 C 274.71 211.77 274.81 208.20 272.72 206.38 C 257.56 191.18 242.39 176.00 227.19 160.85 C 224.85 157.83 219.14 158.86 218.86 162.95 C 218.63 172.42 218.82 181.91 218.77 191.39 C 206.52 191.41 194.27 191.40 182.02 191.40 C 172.53 191.48 162.92 187.43 156.76 180.14 C 150.74 173.07 146.48 164.77 142.37 156.51 Z" />
</g>
<g id="#000000ff">
<path fill="#000000" opacity="1.00" d=" M 218.83 33.98 C 218.71 29.95 224.27 28.25 226.81 31.13 C 242.10 46.27 257.26 61.55 272.50 76.75 C 274.78 78.60 274.81 82.37 272.52 84.23 C 257.30 99.44 242.11 114.69 226.86 129.87 C 224.37 132.86 218.85 130.93 218.83 127.03 C 218.66 117.69 218.82 108.34 218.76 99.00 C 206.15 99.02 193.54 98.97 180.93 99.02 C 174.00 99.10 166.97 101.15 161.57 105.61 C 155.50 110.72 151.05 117.42 147.26 124.32 C 136.56 144.16 129.66 165.85 118.23 185.33 C 112.36 195.94 104.64 205.50 95.53 213.47 C 87.51 220.49 77.38 224.64 67.06 226.89 C 58.18 228.83 49.05 228.33 40.04 228.40 C 33.36 228.35 26.67 228.48 20.00 228.35 C 17.56 228.47 15.39 226.31 15.50 223.88 C 15.44 214.62 15.46 205.35 15.49 196.08 C 15.30 193.55 17.53 191.26 20.07 191.43 C 31.38 191.32 42.70 191.49 54.01 191.35 C 60.99 191.19 68.04 188.91 73.31 184.24 C 80.05 178.37 84.69 170.59 88.76 162.74 C 100.67 139.34 108.50 113.68 124.27 92.38 C 131.01 83.89 138.56 75.65 148.16 70.37 C 158.22 65.02 169.58 62.10 180.99 62.04 C 193.58 61.95 206.17 62.03 218.76 62.00 C 218.82 52.66 218.67 43.31 218.83 33.98 Z" />
<path fill="#000000" opacity="1.00" d=" M 15.48 67.04 C 15.18 64.49 17.27 61.95 19.90 62.05 C 31.29 61.96 42.69 61.98 54.08 62.05 C 67.96 62.25 81.80 66.71 92.94 75.07 C 100.24 80.42 106.41 87.19 111.63 94.55 C 103.69 106.89 97.80 120.39 91.87 133.77 C 87.62 125.43 83.36 116.96 77.15 109.86 C 71.16 103.00 62.05 99.12 53.00 99.02 C 41.98 98.94 30.95 99.08 19.94 98.96 C 17.32 99.09 15.20 96.58 15.48 94.03 C 15.46 85.03 15.46 76.04 15.48 67.04 Z" />
<path fill="#000000" opacity="1.00" d=" M 142.37 156.51 C 146.48 164.77 150.74 173.07 156.76 180.14 C 162.92 187.43 172.53 191.48 182.02 191.40 C 194.27 191.40 206.52 191.41 218.77 191.39 C 218.82 181.91 218.63 172.42 218.86 162.95 C 219.14 158.86 224.85 157.83 227.19 160.85 C 242.39 176.00 257.56 191.18 272.72 206.38 C 274.81 208.20 274.71 211.77 272.59 213.54 C 257.22 228.88 241.92 244.30 226.49 259.58 C 223.74 262.30 218.50 259.83 218.80 256.00 C 218.71 246.80 218.78 237.61 218.78 228.41 C 201.01 228.09 183.03 229.91 165.48 226.33 C 157.16 225.04 149.64 220.88 142.54 216.56 C 134.91 210.78 128.22 203.70 122.75 195.85 C 130.54 183.40 136.53 169.95 142.37 156.51 Z" />
</g>
</svg>
