<?xml version="1.0" encoding="UTF-8" ?>
<!DOCTYPE svg PUBLIC "-//W3C//DTD SVG 1.1//EN" "http://www.w3.org/Graphics/SVG/1.1/DTD/svg11.dtd">
<svg width="290pt" height="290pt" viewBox="0 0 290 290" version="1.1" xmlns="http://www.w3.org/2000/svg">
<g id="#ffffffff">
<path fill="#ffffff" opacity="1.00" d=" M 137.50 57.68 C 144.72 55.04 152.60 56.83 160.11 56.30 C 167.71 55.85 175.23 62.14 175.16 69.96 C 175.21 119.62 175.20 169.28 175.17 218.94 C 175.28 226.42 168.36 232.72 161.04 232.68 C 154.17 232.67 147.30 232.79 140.44 232.62 C 133.44 232.16 127.51 225.94 127.33 218.93 C 127.27 185.28 127.34 151.62 127.30 117.97 C 127.32 115.73 127.13 113.45 127.68 111.26 C 123.81 113.44 119.97 116.10 115.42 116.50 C 111.68 115.77 107.67 114.89 104.80 112.21 C 102.23 109.76 101.71 106.13 100.65 102.91 C 99.11 97.58 97.20 92.35 96.04 86.93 C 95.74 83.05 97.54 78.86 101.17 77.07 C 113.26 70.57 125.31 63.98 137.50 57.68 M 140.38 67.42 C 128.89 73.63 117.33 79.75 105.83 85.96 C 107.89 92.30 109.70 98.71 111.74 105.06 C 113.06 105.53 114.34 106.22 115.75 106.41 C 123.01 102.48 130.17 98.37 137.46 94.47 C 137.50 136.35 137.42 178.23 137.50 220.11 C 138.28 220.90 139.06 221.69 139.84 222.49 C 147.41 222.59 154.97 222.51 162.54 222.53 C 163.40 221.65 164.26 220.78 165.13 219.91 C 165.13 169.64 165.12 119.37 165.13 69.10 C 164.26 68.22 163.40 67.34 162.54 66.47 C 156.35 66.47 150.16 66.46 143.97 66.45 C 142.68 66.33 141.47 66.76 140.38 67.42 Z" />
</g>
<g id="#000000ff">
<path fill="#000000" opacity="1.00" d=" M 140.38 67.42 C 141.47 66.76 142.68 66.33 143.97 66.45 C 150.16 66.46 156.35 66.47 162.54 66.47 C 163.40 67.34 164.26 68.22 165.13 69.10 C 165.12 119.37 165.13 169.64 165.13 219.91 C 164.26 220.78 163.40 221.65 162.54 222.53 C 154.97 222.51 147.41 222.59 139.84 222.49 C 139.06 221.69 138.28 220.90 137.50 220.11 C 137.42 178.23 137.50 136.35 137.46 94.47 C 130.17 98.37 123.01 102.48 115.75 106.41 C 114.34 106.22 113.06 105.53 111.74 105.06 C 109.70 98.71 107.89 92.30 105.83 85.96 C 117.33 79.75 128.89 73.63 140.38 67.42 Z" />
</g>
</svg>
